<?xml version="1.0" encoding="iso-8859-1"?>
<!-- Generator: Adobe Illustrator 19.0.0, SVG Export Plug-In . SVG Version: 6.00 Build 0)  -->
<svg version="1.1" id="Layer_1" xmlns="http://www.w3.org/2000/svg" xmlns:xlink="http://www.w3.org/1999/xlink" x="0px" y="0px"
	 viewBox="0 0 512 512" style="enable-background:new 0 0 512 512;" xml:space="preserve">
<g>
	<g>
		<path d="M462.717,348.911c-0.027-0.307-0.041-0.618-0.041-0.927c0-31.561-25.676-57.238-57.237-57.238
			c-31.561,0-57.237,25.676-57.237,57.238c0,11.898,3.632,23.317,10.502,33.022c0.415,0.586,0.77,1.214,1.062,1.87
			c0.118,0.264,12.916,28.453,42.032,56.14c31.073,29.547,68.038,47.38,110.201,53.227
			C492.52,469.944,469.49,427.527,462.717,348.911z"/>
	</g>
</g>
<g>
	<g>
		<path d="M505.399,306.28c-0.028-0.889-0.135-4.728-0.174-5.513c-1.153-23.399-19.202-50.238-38.275-78.601
			c-18.401-27.362-37.428-55.657-43.92-84.982c-7.788-35.173,3.773-65.177,35.336-91.727c2.863-2.408,4.351-5.847,3.98-9.198
			c-0.218-1.958-1.174-4.654-4.497-6.378c-12.924-6.72-26.716-10.124-41.004-10.124c-6.474,0-13.124,0.712-19.765,2.117
			c-51.463,10.906-87.199,59.188-83.729,112.72c0.036,0.562,0.278,3.639,0.312,4.052c4.716,58.676,10.2,131.353-36.684,190.008
			l-1.318,1.661c-5.143,6.504-15.848,20.04-31.645,33.022c-19.949,16.394-42.489,28.431-48.922,31.73
			c-15.37,7.882-28.392,11.713-39.81,11.713c-26.377,0-47.836-21.453-47.836-47.822c0-12.828,5.012-24.875,14.112-33.92
			c1.157-1.15,3.346-2.958,8.189-6.94c5.912-4.862,16.916-13.912,19.856-17.26c14.172-16.138,18.586-31.919,23.696-50.192
			c4.127-14.759,8.623-30.831,18.549-49.013c-54.232,23.079-159.816,79.424-159.816,168.231c0,70.324,48.266,96.361,69.017,104.289
			c16.783,6.415,42.129,9.666,75.335,9.666c62.977,0,129.445-11.528,142.13-13.839c25.152-4.582,47.468-10.066,67.134-16.502
			c-28.685-27.684-42.501-55.142-45.18-60.822c-9.089-13.193-13.887-28.615-13.887-44.671c0-43.483,35.375-78.859,78.857-78.859
			c43.321,0,78.595,35.113,78.856,78.375c1.077,12.355,2.573,23.683,4.381,34.076C500.826,360.466,506.349,335.53,505.399,306.28z
			 M401.488,67.192c-5.17,2.985-11.782,1.213-14.767-3.957c-2.985-5.17-1.213-11.782,3.957-14.767
			c5.17-2.985,11.782-1.213,14.767,3.957S406.659,64.207,401.488,67.192z"/>
	</g>
</g>
<g>
	<g>
		<path d="M0,195.42c12.162,21.414,26.843,56.014,30.776,102.704c3.77-6.342,8.177-12.685,12.976-18.834
			c8.227-10.544,17.984-20.796,29.166-30.703C50.144,218.833,20.952,203.26,0,195.42z"/>
	</g>
</g>
<g>
</g>
<g>
</g>
<g>
</g>
<g>
</g>
<g>
</g>
<g>
</g>
<g>
</g>
<g>
</g>
<g>
</g>
<g>
</g>
<g>
</g>
<g>
</g>
<g>
</g>
<g>
</g>
<g>
</g>
</svg>
